<?xml version="1.0" standalone="no"?><!DOCTYPE svg PUBLIC "-//W3C//DTD SVG 1.1//EN" "http://www.w3.org/Graphics/SVG/1.1/DTD/svg11.dtd"><svg t="1647625166125" class="icon" viewBox="0 0 1024 1024" version="1.1" xmlns="http://www.w3.org/2000/svg" p-id="1479" xmlns:xlink="http://www.w3.org/1999/xlink" width="200" height="200"><defs><style type="text/css">@font-face { font-family: feedback-iconfont; src: url("//at.alicdn.com/t/font_1031158_u69w8yhxdu.woff2?t=1630033759944") format("woff2"), url("//at.alicdn.com/t/font_1031158_u69w8yhxdu.woff?t=1630033759944") format("woff"), url("//at.alicdn.com/t/font_1031158_u69w8yhxdu.ttf?t=1630033759944") format("truetype"); }
</style></defs><path d="M510.515 133.837C306.227 136.96 139.008 303.053 134.4 507.29a380.836 380.836 0 0 0 28.416 153.497c2.765 6.707 4.3 13.773 4.3 20.992v140.186c0 29.593 24.014 53.606 53.607 53.606h157.133c5.94 0 11.827 1.075 17.46 2.97 37.887 12.646 78.335 19.61 120.473 19.66 207.718 0.41 379.443-167.935 382.925-375.603 3.584-216.115-172.186-392.09-388.199-388.761z" fill="#E8BC70" p-id="1480"></path><path d="M164.71 484.454a319.642 319.642 0 1 0 639.284 0 319.642 319.642 0 1 0-639.284 0z" fill="#FFE8B2" p-id="1481"></path><path d="M241.613 433.203a200.55 200.55 0 1 0 401.1 0 200.55 200.55 0 1 0-401.1 0z" fill="#FFF2D7" p-id="1482"></path><path d="M516.506 923.802h-0.82c-43.878-0.103-87.142-7.168-128.512-20.992-3.225-1.076-6.4-1.639-9.37-1.639H220.673c-43.674 0-79.206-35.533-79.206-79.206V681.779c0-3.635-0.82-7.424-2.407-11.315A405.75 405.75 0 0 1 108.8 506.726c2.355-105.42 45.21-204.8 120.73-279.756 75.468-74.957 175.155-117.146 280.576-118.733 111.513-1.69 216.268 40.755 294.963 119.603 78.745 78.848 121.037 183.654 119.193 295.168-3.737 221.184-186.572 400.794-407.756 400.794z m-5.99-789.965l0.409 25.6C321.69 162.355 164.25 318.669 160 507.853c-1.126 49.459 7.782 97.638 26.47 143.206 4.148 10.035 6.196 20.378 6.196 30.72v140.186c0 15.411 12.544 28.006 28.006 28.006h157.133c8.499 0 17.1 1.434 25.6 4.25a355.702 355.702 0 0 0 112.384 18.33h0.717c193.433 0 353.33-157.082 356.556-350.465 1.639-97.536-35.379-189.184-104.192-258.15-68.864-68.966-160.665-106.138-257.945-104.602l-0.41-25.497z" fill="#434A54" p-id="1483"></path><path d="M682.547 395.725c-43.673-43.674-114.38-45.568-160.41-5.274-2.406 2.15-5.478 3.38-8.703 3.38-3.124 0-6.093-1.178-8.5-3.226-47.718-40.192-119.142-37.683-161.894 6.707-44.032 45.773-43.366 119.552 1.587 164.454L460.902 677.99c14.541 14.541 33.588 21.812 52.685 21.812 19.098 0 38.195-7.27 52.685-21.812l116.224-116.224c45.875-45.721 45.875-120.217 0.051-166.041z" fill="#FC6565" p-id="1484"></path><path d="M475.802 364.134s-144.026-12.39-161.332 94.516c-6.195 38.4 42.496 130.816 115.559 172.492C416 537.907 439.5 409.958 516.249 385.23c-29.286-21.095-40.447-21.095-40.447-21.095z" fill="#FFB8B8" p-id="1485"></path><path d="M482.816 387.02s-165.888 52.634-68.096 224.052c48.896 79.206 98.918 88.78 98.918 88.78s-81.561-248.473 58.932-308.53c-56.935-11.725-89.754-4.301-89.754-4.301z" fill="#FF9797" p-id="1486"></path><path d="M513.638 725.453c-26.777 0-51.916-10.394-70.81-29.287L326.555 579.942c-54.733-54.732-55.604-144.588-1.946-200.345 49.613-51.559 130.662-57.293 188.723-14.9 56.32-42.547 136.704-37.683 187.341 12.954 55.757 55.757 55.757 146.535 0 202.291L584.448 696.166c-18.893 18.893-44.032 29.287-70.81 29.287z m-86.681-337.818c-24.115 0-47.872 9.216-65.434 27.495-34.457 35.788-33.894 93.49 1.229 128.614l116.275 116.224a48.589 48.589 0 0 0 34.611 14.285c13.108 0 25.396-5.069 34.612-14.285l116.224-116.224c35.788-35.789 35.788-94.054 0-129.894-34.048-34.048-89.14-35.892-125.44-4.096a38.738 38.738 0 0 1-25.6 9.728c-9.063 0-17.972-3.277-24.986-9.216-17.92-15.156-39.834-22.63-61.491-22.63z" fill="#434A54" p-id="1487"></path></svg>